<?xml version="1.0" standalone="no"?>
<!DOCTYPE svg PUBLIC "-//W3C//DTD SVG 20010904//EN"
 "http://www.w3.org/TR/2001/REC-SVG-20010904/DTD/svg10.dtd">
<svg version="1.0" xmlns="http://www.w3.org/2000/svg"
 width="1024.000000pt" height="1024.000000pt" viewBox="0 0 1024.000000 1024.000000"
 preserveAspectRatio="xMidYMid meet">
<metadata>
Created by potrace 1.16, written by Peter Selinger 2001-2019
</metadata>
<g transform="translate(0.000000,1024.000000) scale(0.100000,-0.100000)"
fill="#3b82f6" stroke="none">
<path d="M4995 8243 c-132 -18 -236 -64 -600 -265 -165 -91 -390 -214 -500
-273 -503 -272 -555 -308 -666 -457 -70 -95 -110 -177 -139 -288 -19 -75 -22
-119 -27 -372 -3 -166 -2 -288 3 -287 5 0 55 61 112 134 l102 134 0 58 c2 362
106 544 411 715 179 101 804 445 1004 552 227 122 257 131 435 131 140 0 148
-1 222 -32 42 -18 126 -59 185 -91 59 -33 250 -137 423 -232 173 -95 398 -218
500 -273 243 -131 277 -155 352 -249 89 -111 138 -240 147 -388 l6 -105 37 50
c20 28 59 92 85 143 60 117 62 156 16 255 -43 90 -124 205 -183 261 -66 62
-183 136 -380 241 -91 48 -340 183 -555 300 -540 294 -570 308 -719 334 -57
11 -209 12 -271 4z"/>
<path d="M6448 8069 c-90 -8 -295 -36 -336 -46 -13 -3 -20 -9 -15 -13 4 -4 73
-44 153 -88 l145 -79 75 8 c108 11 332 11 430 -1 201 -25 345 -83 428 -175 74
-80 96 -144 96 -275 1 -144 -23 -223 -140 -465 -155 -321 -510 -856 -902
-1360 -47 -60 -86 -111 -88 -113 -1 -2 -34 16 -73 40 l-71 43 2 495 3 494 140
78 c77 42 143 78 148 78 4 0 7 -175 7 -390 0 -214 3 -390 8 -390 4 0 14 11 24
24 9 12 55 76 103 141 l87 119 -4 296 c-4 276 -6 299 -26 351 -13 31 -36 76
-53 98 -50 70 -14 48 -809 481 -584 318 -568 310 -649 310 -81 0 -123 -13
-228 -73 -43 -25 -267 -147 -498 -272 -632 -342 -675 -367 -720 -412 -51 -50
-83 -116 -98 -197 -9 -51 -19 -71 -61 -121 -229 -269 -493 -632 -651 -895
-205 -341 -288 -577 -289 -815 0 -193 45 -313 165 -440 108 -113 217 -176 403
-229 139 -41 282 -57 581 -66 154 -5 302 -14 329 -20 73 -16 137 -46 281 -131
214 -126 311 -159 476 -159 163 0 295 44 467 156 84 55 290 251 558 534 88 92
98 99 355 249 311 182 349 208 391 269 54 78 68 144 68 313 l0 149 88 118 c93
122 359 494 429 597 160 238 354 593 407 746 65 191 90 387 67 524 -49 286
-302 468 -716 515 -102 11 -357 11 -487 -1z m-1428 -759 l0 -169 -67 -39 c-38
-21 -216 -120 -397 -220 l-329 -182 -153 87 c-85 48 -150 90 -146 94 4 4 203
114 442 245 239 131 482 264 540 296 58 32 106 58 108 58 1 0 2 -76 2 -170z
m660 -77 c190 -105 410 -225 490 -267 80 -43 148 -81 153 -85 4 -4 -30 -28
-75 -53 -46 -25 -116 -64 -157 -87 l-73 -41 -317 176 c-174 97 -351 196 -393
221 l-78 45 0 170 0 169 53 -29 c28 -17 207 -115 397 -219z m-663 -960 c-4 -4
-535 283 -550 297 -10 9 -18 4 313 189 l235 131 3 -306 c1 -169 1 -309 -1
-311z m446 491 c122 -69 246 -140 275 -156 29 -17 51 -32 48 -35 -6 -6 -548
-303 -553 -303 -1 0 -3 140 -3 310 0 171 3 310 6 310 3 0 106 -57 227 -126z
m-1505 -154 l132 -74 -2 -500 -3 -500 -105 -63 c-58 -35 -122 -73 -142 -84
l-38 -19 0 661 c0 528 3 660 13 657 7 -2 72 -37 145 -78z m574 -318 c117 -65
257 -142 310 -172 54 -29 95 -57 93 -61 -3 -4 -53 -35 -113 -70 -59 -34 -192
-115 -297 -179 -104 -64 -196 -120 -202 -124 -10 -6 -13 69 -13 358 0 201 2
366 4 366 2 0 100 -53 218 -118z m1408 -247 c0 -201 -2 -365 -4 -365 -5 0
-583 353 -610 373 -22 15 -51 -3 279 177 94 52 204 113 245 136 41 24 78 43
83 43 4 1 7 -163 7 -364z m-2323 -876 c42 -85 89 -128 238 -215 529 -311 736
-432 901 -530 105 -63 198 -116 206 -119 9 -4 40 6 69 21 110 55 205 130 294
230 55 62 56 65 24 49 -19 -10 -51 -29 -71 -42 -21 -12 -40 -23 -43 -23 -3 0
-5 74 -5 164 l0 164 183 108 c100 59 285 169 411 244 l229 137 54 -30 c47 -25
52 -31 41 -45 -223 -286 -778 -890 -908 -988 -193 -146 -376 -200 -533 -159
-91 24 -197 81 -672 365 -99 59 -250 149 -335 199 -86 51 -176 110 -202 132
-86 73 -173 231 -199 361 -6 29 -14 159 -17 288 l-7 235 -59 -95 c-33 -52 -80
-133 -104 -179 -44 -82 -45 -85 -44 -173 3 -207 97 -418 256 -573 61 -59 202
-156 376 -255 8 -5 12 -11 10 -13 -8 -7 -229 12 -334 29 -462 75 -648 333
-525 731 77 247 305 633 594 1006 l130 167 5 -562 5 -563 32 -66z m1399 -37
c-3 -2 -132 70 -288 161 -156 90 -294 170 -306 177 -23 11 -20 14 65 65 48 29
187 114 308 188 l220 136 3 -361 c1 -199 0 -363 -2 -366z m440 592 c104 -65
233 -144 287 -177 53 -32 97 -62 97 -65 -1 -6 -576 -341 -601 -350 -5 -2 -9
149 -9 363 0 356 1 365 19 356 10 -6 104 -63 207 -127z m-1032 -505 c121 -73
298 -177 391 -232 94 -55 178 -107 188 -115 15 -13 17 -35 17 -179 0 -89 -2
-163 -4 -163 -5 0 -217 122 -566 325 -140 81 -318 185 -396 229 -77 45 -141
86 -141 91 -1 10 264 175 281 175 4 0 108 -59 230 -131z"/>
<path d="M7113 5952 c-35 -48 -83 -114 -107 -147 l-44 -61 -5 -269 c-5 -300
-10 -332 -75 -465 -45 -93 -155 -206 -259 -267 -39 -23 -210 -123 -380 -221
-169 -99 -369 -216 -444 -260 -76 -45 -187 -122 -250 -174 -63 -51 -154 -122
-202 -157 -48 -35 -86 -65 -84 -67 7 -7 203 15 267 30 151 35 201 59 490 231
113 67 318 188 455 269 334 197 377 227 465 317 84 85 136 167 180 281 54 141
61 210 58 650 l-3 398 -62 -88z"/>
<path d="M2760 2844 l0 -496 298 4 c272 4 302 6 354 25 213 80 328 241 328
462 0 100 -20 187 -57 251 -45 77 -121 148 -197 185 -113 56 -176 65 -468 65
l-258 0 0 -496z m601 304 c75 -35 120 -76 155 -145 26 -53 29 -67 29 -158 0
-84 -4 -107 -23 -147 -29 -59 -90 -120 -146 -147 -59 -29 -181 -43 -313 -35
l-113 7 0 329 0 330 178 -4 c164 -4 181 -6 233 -30z"/>
<path d="M6280 2845 l0 -495 95 0 95 0 0 495 0 495 -95 0 -95 0 0 -495z"/>
<path d="M6614 3326 c-3 -7 -4 -42 -2 -77 l3 -64 168 -3 167 -2 0 -415 0 -415
95 0 95 0 0 415 0 415 170 0 170 0 0 80 0 80 -430 0 c-353 0 -432 -2 -436 -14z"/>
<path d="M4145 3096 c-166 -53 -264 -176 -273 -342 -8 -150 49 -273 162 -346
78 -50 141 -68 242 -68 104 0 188 25 258 78 98 74 146 176 146 307 0 233 -163
386 -408 384 -48 0 -105 -6 -127 -13z m250 -171 c126 -73 141 -275 29 -374
-111 -97 -279 -66 -347 64 -27 51 -28 163 -3 216 56 117 206 162 321 94z"/>
<path d="M5073 3096 c-108 -35 -206 -125 -244 -224 -31 -80 -31 -214 0 -294
41 -106 135 -188 255 -223 91 -27 234 -18 308 18 51 25 148 115 148 137 0 5
-31 26 -69 48 l-69 40 -21 -29 c-44 -59 -139 -89 -222 -69 -66 16 -142 85
-158 145 -17 61 -13 135 10 185 25 56 44 77 91 101 89 46 192 33 261 -33 22
-21 43 -38 45 -38 11 0 132 83 132 90 0 17 -113 112 -157 132 -61 27 -244 36
-310 14z"/>
<path d="M5660 2750 l0 -80 205 0 205 0 0 80 0 80 -205 0 -205 0 0 -80z"/>
</g>
</svg>
